<svg width="720" height="720" viewBox="0 0 720 720" fill="none" xmlns="http://www.w3.org/2000/svg">
<rect width="720" height="720" rx="36" fill="#07111F"/>
<circle cx="360" cy="360" r="206" stroke="url(#orbit)" stroke-width="1.5" stroke-dasharray="6 10"/>
<circle cx="360" cy="360" r="136" stroke="url(#orbit2)" stroke-width="1.5" stroke-dasharray="6 10"/>
<circle cx="360" cy="360" r="62" fill="url(#core)"/>
<g filter="url(#blur)">
<circle cx="360" cy="360" r="22" fill="#C7F8F0"/>
</g>
<g>
<circle cx="360" cy="154" r="16" fill="#53E0C1"/>
<rect x="330" y="108" width="60" height="28" rx="14" fill="#0E1C31" stroke="#213657"/>
<text x="360" y="126" text-anchor="middle" fill="#EAF4FF" font-family="Arial" font-size="11">Visa</text>
</g>
<g>
<circle cx="548" cy="360" r="16" fill="#7C6CFF"/>
<rect x="560" y="346" width="76" height="28" rx="14" fill="#0E1C31" stroke="#213657"/>
<text x="598" y="364" text-anchor="middle" fill="#EAF4FF" font-family="Arial" font-size="11">Banking</text>
</g>
<g>
<circle cx="360" cy="566" r="16" fill="#2FA9FF"/>
<rect x="328" y="582" width="68" height="28" rx="14" fill="#0E1C31" stroke="#213657"/>
<text x="362" y="600" text-anchor="middle" fill="#EAF4FF" font-family="Arial" font-size="11">Tax</text>
</g>
<g>
<circle cx="172" cy="360" r="16" fill="#FF8A65"/>
<rect x="86" y="346" width="72" height="28" rx="14" fill="#0E1C31" stroke="#213657"/>
<text x="122" y="364" text-anchor="middle" fill="#EAF4FF" font-family="Arial" font-size="11">Rent</text>
</g>
<g opacity="0.9">
<circle cx="457" cy="265" r="12" fill="#C7F8F0"/>
<circle cx="259" cy="271" r="12" fill="#C7F8F0"/>
<circle cx="455" cy="454" r="12" fill="#C7F8F0"/>
<circle cx="264" cy="453" r="12" fill="#C7F8F0"/>
</g>
<defs>
<filter id="blur" x="298" y="298" width="124" height="124" filterUnits="userSpaceOnUse" color-interpolation-filters="sRGB">
<feGaussianBlur stdDeviation="20"/>
</filter>
<linearGradient id="orbit" x1="154" y1="154" x2="566" y2="566" gradientUnits="userSpaceOnUse">
<stop stop-color="#53E0C1"/>
<stop offset="1" stop-color="#7C6CFF"/>
</linearGradient>
<linearGradient id="orbit2" x1="224" y1="224" x2="496" y2="496" gradientUnits="userSpaceOnUse">
<stop stop-color="#2FA9FF"/>
<stop offset="1" stop-color="#53E0C1"/>
</linearGradient>
<radialGradient id="core" cx="0" cy="0" r="1" gradientUnits="userSpaceOnUse" gradientTransform="translate(360 360) rotate(90) scale(62)">
<stop stop-color="#E8F8FF"/>
<stop offset="1" stop-color="#163156"/>
</radialGradient>
</defs>
</svg>