<svg width="1600" height="900" viewBox="0 0 1600 900" fill="none" xmlns="http://www.w3.org/2000/svg">
<rect width="1600" height="900" rx="32" fill="#07111F"/>
<g filter="url(#f0)">
<circle cx="310" cy="240" r="220" fill="url(#g1)" fill-opacity="0.8"/>
<circle cx="1180" cy="250" r="240" fill="url(#g2)" fill-opacity="0.7"/>
<circle cx="820" cy="640" r="280" fill="url(#g3)" fill-opacity="0.55"/>
</g>
<path d="M0 700C220 620 298 570 475 590C652 610 697 726 917 721C1137 716 1228 576 1600 643V900H0V700Z" fill="url(#g4)" fill-opacity="0.35"/>
<g opacity="0.28" stroke="#8FB6FF">
<path d="M115 127H1485"/>
<path d="M115 247H1485"/>
<path d="M115 367H1485"/>
<path d="M115 487H1485"/>
<path d="M115 607H1485"/>
<path d="M115 727H1485"/>
<path d="M115 127V777"/>
<path d="M355 127V777"/>
<path d="M595 127V777"/>
<path d="M835 127V777"/>
<path d="M1075 127V777"/>
<path d="M1315 127V777"/>
</g>
<defs>
<filter id="f0" x="-110" y="-180" width="1860" height="1220" filterUnits="userSpaceOnUse" color-interpolation-filters="sRGB">
<feFlood flood-opacity="0" result="BackgroundImageFix"/>
<feBlend mode="normal" in="SourceGraphic" in2="BackgroundImageFix" result="shape"/>
<feGaussianBlur stdDeviation="70" result="effect1_foregroundBlur_1_2"/>
</filter>
<linearGradient id="g1" x1="90" y1="20" x2="500" y2="420" gradientUnits="userSpaceOnUse">
<stop stop-color="#53E0C1"/>
<stop offset="1" stop-color="#53E0C1" stop-opacity="0"/>
</linearGradient>
<linearGradient id="g2" x1="940" y1="20" x2="1410" y2="470" gradientUnits="userSpaceOnUse">
<stop stop-color="#7C6CFF"/>
<stop offset="1" stop-color="#7C6CFF" stop-opacity="0"/>
</linearGradient>
<linearGradient id="g3" x1="590" y1="390" x2="1090" y2="890" gradientUnits="userSpaceOnUse">
<stop stop-color="#2FA9FF"/>
<stop offset="1" stop-color="#2FA9FF" stop-opacity="0"/>
</linearGradient>
<linearGradient id="g4" x1="0" y1="520" x2="1600" y2="850" gradientUnits="userSpaceOnUse">
<stop stop-color="#0E2748"/>
<stop offset="0.5" stop-color="#0B1E38"/>
<stop offset="1" stop-color="#0A1730"/>
</linearGradient>
</defs>
</svg>